<?xml version="1.0" encoding="utf-8" ?>
<svg xmlns="http://www.w3.org/2000/svg" xmlns:xlink="http://www.w3.org/1999/xlink" width="1024" height="1024">
	<path fill="#BDCCCE" d="M0 0L1024 0L1024 1024L0 1024L0 0Z"/>
	<path fill="#0369B7" d="M554.734 772.047C561.791 771.967 568.863 771.945 575.916 771.701C582.33 771.48 589.375 770.395 595.705 771.591C600.339 772.467 604.981 774.885 608.336 778.207C611.208 781.05 612.684 784.568 612.532 788.623C612.36 793.205 610.431 797.286 606.926 800.218C604.591 802.171 601.911 803.619 598.889 804.116C591.489 805.334 583.024 804.028 575.531 803.708C564.168 803.222 552.704 802.977 541.328 802.903C541.744 802.625 542.108 802.243 542.577 802.068C543.656 801.666 546.944 802.107 548.206 802.119Q563.109 802.308 578.002 802.876C585.263 803.212 593.027 804.412 600.243 803.238C600.348 803.04 600.608 802.864 600.56 802.645C600.236 801.182 594.096 798.363 593.891 791.368C593.702 784.894 601.388 779.313 600.294 773.711C599.847 773.56 599.394 773.422 598.959 773.238C589.197 769.114 566.543 774.971 555.14 772.158C555.004 772.124 554.87 772.084 554.734 772.047Z"/>
	<path fill="#5F63CA" d="M733.538 372.797C733.688 373.004 733.848 373.203 733.987 373.417C736.734 377.629 735.06 399.489 736.246 400.879C736.467 401.138 736.842 401.217 737.166 401.322C744.302 403.637 756.618 400.607 763.065 403.627C765.075 396.496 760.152 383.362 761.982 376.421C765.879 398.103 763.756 421.075 760.493 442.673C759.811 447.188 759.305 453.147 757.551 457.337L757.234 457.005C756.899 453.717 758.637 449.428 759.234 446.095C759.462 444.821 759.026 443.593 759.502 442.41C759.582 442.212 759.696 442.029 759.792 441.839C751.177 439.888 741.653 439.189 732.836 438.556C732.264 441.619 730.788 451.699 728.937 454.04C728.776 454.244 728.601 454.436 728.433 454.634C729.479 448.169 731.444 441.845 732.434 435.338Q733.568 427.578 734.206 419.761Q734.843 411.944 734.982 404.103Q735.12 396.261 734.759 388.427Q734.397 380.592 733.538 372.797Z"/>
	<path fill="#7EA1AD" d="M568.869 882.786C572.836 882.46 598.74 882.62 600.997 883.358L597.081 883.602C598.386 885.241 600.839 887.265 601.212 889.386C601.363 890.239 600.725 890.713 600.263 891.378C601.118 891.441 601.961 891.516 602.811 891.625L603.56 891.727L603.392 891.262L603.259 891.941C597.427 891.171 591.008 892.51 585.083 892.362C571.43 892.022 557.765 891.252 544.103 891.667C526.908 892.188 509.765 893.999 492.556 894.488C480.135 894.841 467.745 892.752 455.294 892.615Q449.969 893.055 444.669 893.737L445.375 892.634C443.384 890.127 431.247 890.016 427.17 887.933C423.768 882.851 422.292 886.097 417.381 884.929C421.918 883.822 427.625 884.177 432.304 883.971C439.703 883.646 447.121 883.072 454.528 883.046C465.47 883.007 476.431 883.737 487.378 883.851C499.857 883.98 512.207 882.964 524.66 882.845C539.439 882.704 554.063 883.35 568.869 882.786Z"/>
	<path fill="#0990E1" d="M558.355 665.132Q624.815 664.016 691.273 665.222Q705.684 665.291 720.094 665.074C725.075 665.03 730.299 664.663 735.25 665.282C738.723 665.716 742.067 666.982 744.58 669.49Q745.036 669.946 745.444 670.447Q745.852 670.947 746.207 671.486Q746.562 672.025 746.861 672.597Q747.16 673.169 747.4 673.768Q747.639 674.367 747.817 674.987Q747.995 675.608 748.109 676.243Q748.224 676.878 748.273 677.521Q748.323 678.165 748.307 678.81C748.172 683.112 745.468 686.98 742.322 689.726C739.623 692.082 736.109 692.955 732.611 693.255C725.769 693.841 718.533 693.124 711.665 692.893Q698.513 692.44 685.353 692.563L601.643 692.246C592.025 692.184 582.403 692.617 572.788 692.361C565.767 690.688 555.878 691.965 548.482 691.744C548.917 691.266 548.646 691.4 549.354 691.376C558.231 691.076 567.021 691.568 575.869 691.532L638.13 691.241C643.455 691.251 665.434 692.782 669.122 690.674L668.764 690.199C668.098 690.252 667.294 690.373 666.617 690.337C665.049 690.255 663.465 690.621 661.955 690.411C660.873 690.26 661.31 690.477 660.591 689.568C661.943 687.271 666.466 686.418 668.587 684.268C671.614 681.199 671.317 677.611 671.308 673.623C672.448 672.918 673.597 672.182 674.79 671.57C677.545 670.158 684.324 668.218 687.186 669.229C688.096 669.55 688.489 669.735 689.495 669.565C690.337 668.305 690.147 667.505 690.177 666.012C678.397 666.09 666.537 665.063 654.75 665.112C626.691 665.23 598.735 666.164 570.667 665.52C567.089 665.438 561.097 666.543 557.927 665.855L558.355 665.132Z"/>
	<path fill="#FE6786" d="M462.819 164.875C464.544 163.624 466.325 162.37 468.173 161.307C488.174 149.799 558.726 158.965 581.939 165.058Q584.415 165.73 586.876 166.455Q589.337 167.179 591.782 167.954Q594.227 168.73 596.655 169.557Q599.084 170.384 601.494 171.262Q603.905 172.139 606.296 173.067Q608.688 173.995 611.059 174.973Q613.431 175.951 615.781 176.979Q618.132 178.007 620.46 179.083Q622.789 180.16 625.094 181.286Q627.399 182.411 629.68 183.584Q631.961 184.758 634.217 185.979Q636.473 187.2 638.703 188.469Q640.933 189.737 643.136 191.052Q645.339 192.366 647.513 193.727Q649.688 195.088 651.834 196.494Q653.979 197.9 656.095 199.351Q658.21 200.802 660.295 202.296Q662.38 203.791 664.433 205.33Q666.486 206.868 668.506 208.449Q670.526 210.03 672.512 211.653Q674.499 213.276 676.451 214.941Q678.403 216.605 680.32 218.311Q682.236 220.016 684.117 221.761Q685.997 223.506 687.84 225.29Q689.684 227.074 691.489 228.896Q693.295 230.718 695.061 232.578Q696.828 234.438 698.556 236.335Q700.283 238.231 701.97 240.163Q703.657 242.096 705.304 244.063Q706.95 246.031 708.555 248.032Q710.159 250.033 711.722 252.068Q713.284 254.103 714.803 256.17C719.083 261.968 723.552 267.848 727.199 274.068C726.98 273.908 726.757 273.754 726.542 273.59C722.527 270.521 714.055 256.758 710.493 252.038C704.468 244.055 697.796 237.286 690.889 230.099C686.937 225.987 683.269 221.592 678.9 217.9C673.246 213.121 667.269 209.253 661.25 204.998C659.252 203.585 658.138 201.378 655.991 200.22C654.842 200.464 654.694 200.646 653.687 199.947C650.479 197.723 648.793 194.328 644.578 193.763C643.867 193.99 643.146 194.014 642.705 194.636C644.69 196.474 650.115 199.748 651.111 201.985L650.05 202.483C650.206 202.549 650.373 202.593 650.518 202.681C653.497 204.49 652.428 208.252 656.656 208.918L656.759 210.36C655.603 211.574 654.517 211.83 652.855 211.864C651.448 211.892 650.32 211.484 649.072 210.848C648.576 211.979 648.667 212.607 649.121 213.771C650.722 217.871 654.439 221.867 657.166 225.274C653.783 222.778 650.844 220.642 646.843 219.225L646.692 218.628C645.674 214.725 643.425 214.578 641.264 211.672C639.054 210.973 636.971 211.473 634.753 211.092C628.975 210.1 631.847 206.416 623.495 209.851C622.224 209.161 620.36 207.806 618.958 208.021C618.491 208.76 618.388 208.668 618.478 209.597C618.691 209.678 618.904 209.757 619.116 209.84C623.104 211.41 626.677 214.357 630.639 216.141C634.324 217.799 637.77 220.552 641.115 222.827C664.665 238.845 689.458 263.461 704.169 287.899L704.194 289.387C701.69 285.537 699.198 281.664 696.484 277.957C661.327 229.937 604.003 192.14 543.993 186.915Q526.896 185.551 509.75 186.008C502.209 186.174 493.575 187.45 486.2 186.12C484.585 185.829 483.482 185.406 482.161 184.448C478.614 181.877 465.36 168.555 462.819 164.875Z"/>
	<path fill="#0990E1" d="M541.328 802.903C536.242 803.203 530.971 802.928 525.868 802.91C513.56 802.865 501.257 802.622 488.949 802.704L447.032 802.947C441.138 802.993 435.026 803.65 429.173 803.306C426.157 803.128 423.295 802.557 420.601 801.144C416.045 798.752 412.162 794.241 410.658 789.296C409.516 785.538 410.108 781.764 412.094 778.397C413.904 775.327 418.235 771.17 421.883 770.609C428.616 769.575 436.687 770.754 443.519 770.991Q461.38 771.578 479.249 771.865C504.384 772.368 529.607 771.137 554.734 772.047C554.87 772.084 555.004 772.124 555.14 772.158C566.543 774.971 589.197 769.114 598.959 773.238C599.394 773.422 599.847 773.56 600.294 773.711C601.388 779.313 593.702 784.894 593.891 791.368C594.096 798.363 600.236 801.182 600.56 802.645C600.608 802.864 600.348 803.04 600.243 803.238C593.027 804.412 585.263 803.212 578.002 802.876Q563.109 802.308 548.206 802.119C546.944 802.107 543.656 801.666 542.577 802.068C542.108 802.243 541.744 802.625 541.328 802.903Z"/>
	<path fill="#D44C98" d="M657.166 225.274C654.439 221.867 650.722 217.871 649.121 213.771C648.667 212.607 648.576 211.979 649.072 210.848C650.32 211.484 651.448 211.892 652.855 211.864C654.517 211.83 655.603 211.574 656.759 210.36L656.656 208.918C652.428 208.252 653.497 204.49 650.518 202.681C650.373 202.593 650.206 202.549 650.05 202.483L651.111 201.985C650.115 199.748 644.69 196.474 642.705 194.636C643.146 194.014 643.867 193.99 644.578 193.763C648.793 194.328 650.479 197.723 653.687 199.947C654.694 200.646 654.842 200.464 655.991 200.22C658.138 201.378 659.252 203.585 661.25 204.998C667.269 209.253 673.246 213.121 678.9 217.9C683.269 221.592 686.937 225.987 690.889 230.099C697.796 237.286 704.468 244.055 710.493 252.038C714.055 256.758 722.527 270.521 726.542 273.59C726.757 273.754 726.98 273.908 727.199 274.068C732.792 283.292 738.247 292.718 742.643 302.581C751.11 321.581 761.565 355.34 761.982 376.421C760.152 383.362 765.075 396.496 763.065 403.627C756.618 400.607 744.302 403.637 737.166 401.322C736.842 401.217 736.467 401.138 736.246 400.879C735.06 399.489 736.734 377.629 733.987 373.417C733.848 373.203 733.688 373.004 733.538 372.797C730.479 350.791 724.148 328.043 714.504 307.974C711.438 301.593 707.245 295.806 704.194 289.387L704.169 287.899C689.458 263.461 664.665 238.845 641.115 222.827C637.77 220.552 634.324 217.799 630.639 216.141C626.677 214.357 623.104 211.41 619.116 209.84C618.904 209.757 618.691 209.678 618.478 209.597C618.388 208.668 618.491 208.76 618.958 208.021C620.36 207.806 622.224 209.161 623.495 209.851C631.847 206.416 628.975 210.1 634.753 211.092C636.971 211.473 639.054 210.973 641.264 211.672C643.425 214.578 645.674 214.725 646.692 218.628L646.843 219.225C650.844 220.642 653.783 222.778 657.166 225.274Z"/>
	<path fill="#10ADDC" d="M558.355 665.132L557.927 665.855C561.097 666.543 567.089 665.438 570.667 665.52C598.735 666.164 626.691 665.23 654.75 665.112C666.537 665.063 678.397 666.09 690.177 666.012C690.147 667.505 690.337 668.305 689.495 669.565C688.489 669.735 688.096 669.55 687.186 669.229C684.324 668.218 677.545 670.158 674.79 671.57C673.597 672.182 672.448 672.918 671.308 673.623C671.317 677.611 671.614 681.199 668.587 684.268C666.466 686.418 661.943 687.271 660.591 689.568C661.31 690.477 660.873 690.26 661.955 690.411C663.465 690.621 665.049 690.255 666.617 690.337C667.294 690.373 668.098 690.252 668.764 690.199L669.122 690.674C665.434 692.782 643.455 691.251 638.13 691.241L575.869 691.532C567.021 691.568 558.231 691.076 549.354 691.376C548.646 691.4 548.917 691.266 548.482 691.744C555.878 691.965 565.767 690.688 572.788 692.361L373.156 692.407C345.135 692.377 316.903 693.678 288.924 692.84C285.837 692.748 282.121 692.692 279.335 691.267C274.863 688.981 272.784 684.413 271.235 679.906C272.112 676.041 273.412 672.496 276.109 669.481C278.005 667.363 280.108 666.133 282.933 665.83C290.927 664.97 299.472 665.579 307.529 665.603L355.635 665.79Q414.609 665.305 473.584 665.569C501.843 665.598 530.1 666.303 558.355 665.132Z"/>
	<path fill="#0990E1" d="M698.079 716.778C701.121 716.599 704.171 716.573 707.217 716.513Q708.316 717.08 709.366 717.735C714.807 721.126 716.833 726.173 718.232 732.124C716.267 737.861 712.492 742.753 707.297 745.901C696.057 746.621 684.665 745.593 673.407 745.586L599.759 745.846L319.875 745.924C316.922 745.961 313.966 745.933 311.013 745.934C308.309 744.485 306.166 742.833 304.386 740.29C302.228 737.208 301.231 733.545 302.076 729.832C303.171 725.018 306.948 720.863 310.943 718.178C325.528 716.892 340.505 717.606 355.127 717.891Q377.492 718.296 399.858 718.016L636.535 717.254C657.037 717.058 677.588 717.39 698.079 716.778Z"/>
	<path fill="#0990E1" d="M312.036 252.215C314.012 258.08 314.318 264.521 314.318 270.663C314.318 276.863 314.137 283.351 312.759 289.41C309.768 302.563 301.071 316.543 297.176 330.01C294.477 339.344 291.703 349.022 289.913 358.583Q289.217 362.2 288.641 365.837Q288.065 369.475 287.609 373.129Q287.154 376.784 286.819 380.452Q286.484 384.119 286.271 387.796Q286.058 391.473 285.966 395.155Q285.875 398.836 285.905 402.519Q285.935 406.202 286.087 409.882Q286.239 413.561 286.512 417.234Q286.785 420.907 287.18 424.569Q287.574 428.23 288.089 431.877Q288.605 435.524 289.24 439.151Q289.876 442.779 290.631 446.384Q291.386 449.988 292.259 453.566Q293.133 457.144 294.125 460.691Q295.116 464.238 296.224 467.75Q297.332 471.262 298.556 474.736C302.137 484.732 305.91 494.322 311.086 503.632C341.658 558.618 388.273 598.24 449.297 615.61C504.094 631.207 569.771 624.329 619.628 596.541C629.136 591.242 639.242 585.321 647.855 578.695C676.565 556.608 702.941 519.958 717.445 486.867C722.03 476.407 725.314 465.587 728.433 454.634C728.601 454.436 728.776 454.244 728.937 454.04C730.788 451.699 732.264 441.619 732.836 438.556C741.653 439.189 751.177 439.888 759.792 441.839C759.696 442.029 759.582 442.212 759.502 442.41C759.026 443.593 759.462 444.821 759.234 446.095C758.637 449.428 756.899 453.717 757.234 457.005L757.551 457.337C753.41 475.992 746.508 494.001 738.111 511.126C735.141 517.183 731.384 522.917 727.901 528.689C696.147 581.316 649.644 617.52 591.608 637.154Q588.641 638.127 585.651 639.028Q582.661 639.93 579.651 640.759Q576.64 641.589 573.611 642.346Q570.581 643.103 567.534 643.787Q564.488 644.472 561.425 645.083Q558.363 645.694 555.287 646.231Q552.211 646.769 549.123 647.232Q546.035 647.696 542.936 648.085Q539.838 648.475 536.731 648.79Q533.625 649.105 530.511 649.345Q527.398 649.586 524.279 649.751Q521.161 649.917 518.04 650.008Q514.918 650.099 511.796 650.115Q508.673 650.131 505.551 650.072Q502.429 650.014 499.309 649.88Q496.189 649.746 493.073 649.538Q489.958 649.33 486.848 649.047Q483.738 648.764 480.636 648.406Q477.534 648.049 474.441 647.617Q471.348 647.185 468.267 646.68Q465.185 646.174 462.117 645.594Q459.049 645.015 455.995 644.362Q452.941 643.709 449.904 642.984Q446.867 642.258 443.848 641.459Q440.829 640.661 437.83 639.79Q434.831 638.92 431.854 637.977Q428.877 637.035 425.923 636.022Q422.97 635.008 420.041 633.925Q417.113 632.841 414.211 631.687Q411.309 630.533 408.436 629.31Q405.563 628.087 402.719 626.796Q399.876 625.504 397.065 624.145Q392.986 622.111 388.982 619.934Q384.977 617.756 381.052 615.439Q377.127 613.122 373.286 610.668Q369.445 608.213 365.694 605.625Q361.942 603.036 358.284 600.317Q354.626 597.598 351.066 594.751Q347.507 591.904 344.05 588.933Q340.593 585.963 337.243 582.872Q333.893 579.781 330.655 576.573Q327.416 573.366 324.293 570.046Q321.169 566.727 318.165 563.299Q315.161 559.871 312.28 556.339Q309.399 552.807 306.644 549.175Q303.89 545.544 301.265 541.818Q298.64 538.091 296.149 534.274Q293.657 530.457 291.302 526.555C283.528 513.881 276.368 500.273 271.635 486.15C268.736 477.497 265.703 468.746 263.545 459.881C248.03 396.129 258.623 337.213 287.663 279.142C293.325 267.819 299.296 256.457 312.036 252.215Z"/>
	<path fill="#0C182B" d="M365.206 172.707C377.664 172.203 390.038 172.667 402.49 172.802C411.796 172.903 421.316 171.654 430.451 173.972C436.324 175.463 441.911 178.751 446.395 182.789C450.708 186.673 454.545 191.858 456.157 197.491C459.673 209.771 457.668 239.742 457.582 253.796C457.514 264.727 458.095 275.693 458.641 286.609C459.401 285.829 460.16 285.077 461.008 284.391C466.904 279.624 475.682 277.077 483.099 276.166C491.144 275.179 499.769 275.734 507.894 275.677Q537.584 275.647 567.272 276.019L618.627 276.021C628.006 276.034 637.877 275.471 647.181 276.64C658.589 278.074 669.939 284.954 676.9 294.045C687.154 307.439 687.8 324.354 685.548 340.497C684.659 346.872 682.502 352.586 680.582 358.693C679.002 363.717 677.779 369.087 675.782 373.949C665.805 398.246 645.348 425.228 623.516 440.083C618.864 443.249 613.91 446.186 608.858 448.67C603.247 451.429 596.473 453.808 591.568 457.7C585.774 462.298 583.239 472.758 582.575 479.818C580.663 500.121 585.886 513.807 601.828 526.753C608.764 532.385 615.693 537.391 621.434 544.338C626.187 550.434 629.454 558.713 628.409 566.541C627.868 570.594 626.193 573.268 623.009 575.742C615.035 577.879 603.39 576.634 595.002 576.666L562.514 577.01Q501.421 577.819 440.325 577.207L416.475 576.87C411.18 576.803 405.695 577.1 400.468 576.178C397.713 573.016 396.151 569.867 395.887 565.644C394.346 541.049 414.716 535.282 427.931 519.687C436.792 509.23 441.023 496.455 439.745 482.752C439.001 474.765 434.589 462.337 428.732 456.603C423.897 451.87 408.983 445.182 402.193 441.231C396.546 437.945 391.213 433.941 386.192 429.774C362.962 410.496 348.158 387.155 339.925 358.12C337.873 350.884 335.885 343.678 335.25 336.152C334.31 324.997 334.581 313.635 334.503 302.445Q334.291 278.731 333.685 255.023C333.403 245.512 333.064 235.924 332.467 226.43C331.988 218.81 330.76 210.835 331.725 203.229Q331.895 201.974 332.156 200.735Q332.416 199.496 332.766 198.28Q333.115 197.063 333.552 195.874Q333.989 194.686 334.511 193.533Q335.033 192.379 335.638 191.267Q336.242 190.154 336.925 189.088Q337.609 188.023 338.368 187.009Q339.127 185.996 339.957 185.04C346.538 177.325 355.235 173.489 365.206 172.707Z"/>
	<path fill="#174F5E" d="M484.93 449.194C489.471 449.735 494.051 449.774 498.568 450.304C494.759 450.771 494.318 452.404 491.816 454.945C491.266 458.364 489.601 463.532 491.853 466.606C493.351 468.651 494.014 469.156 496.309 470.001C492.596 469.738 488.886 468.958 485.206 468.39C484.489 461.458 481.889 455.832 484.93 449.194Z"/>
	<path fill="#10ADDC" d="M459.389 500.291L460.13 499.308L460.007 499.032L460.801 498.324C464.797 507.58 461.059 522.518 457.303 531.486C453.289 541.068 442.817 546.819 437.974 556.143C432.08 556.234 425.577 556.875 419.792 555.855C419.015 553.213 436.861 539.865 439.598 537.475C450.595 527.871 455.236 513.777 459.389 500.291Z"/>
	<path fill="#1ACFE3" d="M352.296 209.784C352.616 204.761 354.427 200.285 358.288 196.886C360.095 195.296 361.966 194.358 364.343 193.958C371.794 192.707 379.924 193.496 387.486 193.406C398.021 193.28 408.806 192.408 419.304 193.314C424.539 193.765 428.519 195.26 432.03 199.352C434.423 202.142 435.891 205.474 435.87 209.187L435.329 210.022C435.329 211.544 435.253 212.786 434.845 214.257L434.15 214.592L433.072 213.969C432.831 213.27 432.619 212.735 432.289 212.092L431.527 212.501C427.836 209.411 425.893 204.045 422.264 200.521L421.771 200.049C415.638 199.987 409.447 200.728 403.295 200.797C389.611 200.952 374.946 198.591 361.749 203.449C358.385 204.688 356.19 207.786 353.07 209.398C352.814 209.531 352.554 209.656 352.296 209.784Z"/>
	<path fill="#38F4F3" d="M352.296 209.784C352.554 209.656 352.814 209.531 353.07 209.398C356.19 207.786 358.385 204.688 361.749 203.449C374.946 198.591 389.611 200.952 403.295 200.797C409.447 200.728 415.638 199.987 421.771 200.049L422.264 200.521C425.893 204.045 427.836 209.411 431.527 212.501L432.289 212.092C432.619 212.735 432.831 213.27 433.072 213.969L434.15 214.592L434.845 214.257C435.253 212.786 435.329 211.544 435.329 210.022L435.87 209.187C436.124 211.204 436.06 213.298 436.099 215.331C427.549 214.878 418.986 215.285 410.43 215.264Q381.398 215.142 352.37 215.637L352.296 209.784Z"/>
	<defs>
		<linearGradient id="gradient_0" gradientUnits="userSpaceOnUse" x1="562.24554" y1="325.78918" x2="560.30939" y2="292.42633">
			<stop offset="0" stop-color="#FF857D"/>
			<stop offset="1" stop-color="#DE7096"/>
		</linearGradient>
	</defs>
	<path fill="url(#gradient_0)" d="M485.028 296.201C494.869 295.709 504.864 296.483 514.73 296.433Q551.415 295.951 588.101 296.308L625.256 296.637C632.163 296.737 639.711 296.443 646.524 297.564C650.106 298.153 653.567 300.118 656.224 302.553C661.641 307.518 663.142 314.013 663.561 321.044Q651.475 320.457 639.375 320.513L525.979 319.936C504.303 319.821 482.485 318.879 460.865 320.532C461.121 314.486 462.836 308.024 466.937 303.429C471.768 298.017 478.165 296.744 485.028 296.201Z"/>
	<path fill="#1ACFE3" d="M456.063 462.933C456.674 461.64 456.913 461.113 458.315 460.627C461.101 459.661 465.382 460.393 468.316 460.56C473.584 464.479 479.047 466.337 485.206 468.39C488.886 468.958 492.596 469.738 496.309 470.001C518.31 472.33 541.207 471.897 562.546 465.567C562.41 469.057 562.56 473.108 561.748 476.514C561.169 484.664 561.502 492.583 562.771 500.655C566.978 517.617 574.224 532.271 588.422 542.994C593.757 547.023 599.334 550.781 603.297 556.265C596.133 555.434 588.385 556.766 581.577 555.722C559.719 555.18 536.75 556.029 514.733 556.033C489.209 556.038 463.47 555.259 437.974 556.143C442.817 546.819 453.289 541.068 457.303 531.486C461.059 522.518 464.797 507.58 460.801 498.324L460.007 499.032L460.13 499.308L459.389 500.291C461.234 487.847 460.734 477.725 457.281 465.65C456.758 464.825 456.437 463.836 456.063 462.933Z"/>
	<path fill="#10ADDC" d="M581.577 555.722C579.548 549.761 574.288 545.508 570.224 540.865C566.502 536.614 564.041 531.895 561.917 526.685C556.574 513.578 557.914 509.66 558.96 495.984C559.266 491.979 559.018 487.838 558.934 483.821L559.135 483.626C559.622 486.002 559.466 488.426 559.961 490.691C560.481 493.071 561.094 500.11 562.599 501.667L562.771 500.655C566.978 517.617 574.224 532.271 588.422 542.994C593.757 547.023 599.334 550.781 603.297 556.265C596.133 555.434 588.385 556.766 581.577 555.722Z"/>
	<path fill="#10ADDC" d="M456.063 462.933C456.674 461.64 456.913 461.113 458.315 460.627C461.101 459.661 465.382 460.393 468.316 460.56C473.584 464.479 479.047 466.337 485.206 468.39C488.886 468.958 492.596 469.738 496.309 470.001C518.31 472.33 541.207 471.897 562.546 465.567C562.41 469.057 562.56 473.108 561.748 476.514C561.233 476.782 560.741 477.035 560.2 477.249C554.999 479.31 549.222 481.245 543.714 482.26C529.123 484.948 499.76 486.485 485.998 481.241C479.6 478.803 472.385 475.298 466.585 471.641C464.216 470.148 462.067 467.621 459.587 466.553C459.571 466.547 458.576 466.155 458.507 466.109C457.572 465.487 458.411 465.617 457.281 465.65C456.758 464.825 456.437 463.836 456.063 462.933Z"/>
	<path fill="#38F4F3" d="M354.735 235.228C363.117 235.606 371.52 235.466 379.909 235.571C398.52 235.805 416.955 235.88 435.556 234.958L435.494 254.833C435.968 262.047 435.936 269.273 436.195 276.495C436.493 284.795 437.059 293.062 437.058 301.373C437.057 312.031 436.06 323.593 437.468 334.137C437.799 336.619 438.441 338.328 439.75 340.442C441.561 341.158 443.327 341.795 445.261 342.097C453.43 343.371 462.129 342.851 470.381 342.852L516.356 342.6L585.094 342.577C599.979 342.546 614.982 342.133 629.85 342.642C640.758 342.462 651.756 341.851 662.652 342.003C661.501 366.9 643.272 395.729 625.154 412.405C610.087 426.273 581.632 442.374 561.69 447.089C544.453 451.165 525.052 451.662 507.428 450.851Q502.994 450.647 498.568 450.304C494.051 449.774 489.471 449.735 484.93 449.194C481.889 455.832 484.489 461.458 485.206 468.39C479.047 466.337 473.584 464.479 468.316 460.56C465.382 460.393 461.101 459.661 458.315 460.627C456.913 461.113 456.674 461.64 456.063 462.933C453.019 455.629 446.826 442.89 440.668 437.906C438.762 436.363 436.13 435.316 433.924 434.245C418.162 428.7 402.237 417.149 390.449 405.457C383.783 398.846 378.909 391.666 374.108 383.664C355.691 352.969 355.959 328.629 355.313 294.34C355.075 281.74 354.475 269.167 354.386 256.559C353.506 249.549 354.302 242.25 354.735 235.228Z"/>
	<path fill="#8DFEF9" d="M375.671 269.495C375.28 266.88 377.055 263.51 378.572 261.422C382.093 256.571 386.768 255.436 391.722 252.798C392.857 252.193 393.549 251.358 394.871 251.131C395.486 251.025 396.253 251.189 396.759 251.569C397.015 251.761 397.192 252.04 397.412 252.273C398.97 253.926 402.042 254.576 404.105 255.502C411.232 258.703 416.658 265.975 416.767 273.938C416.78 274.92 416.741 275.092 416.128 275.885C415.977 273.708 415.797 271.482 415.106 269.401C413.141 263.483 408.552 258.225 402.867 255.639C398.126 253.482 392.676 253.264 387.848 255.282C381.528 257.924 378.192 263.475 375.671 269.495Z"/>
	<path fill="#1ACFE3" d="M439.75 340.442C441.561 341.158 443.327 341.795 445.261 342.097C453.43 343.371 462.129 342.851 470.381 342.852L516.356 342.6L585.094 342.577C599.979 342.546 614.982 342.133 629.85 342.642C627.503 345.003 491.119 342.992 472.502 343.764C468.581 343.927 465.69 347.007 461.837 347.313C458.492 347.579 456.375 345.766 453.932 343.746C450.2 343.879 445.344 343.794 441.837 342.45C440.643 341.993 440.246 341.581 439.75 340.442Z"/>
	<path fill="#1ACFE3" d="M401.895 305.567C395.94 306.853 389.817 306.884 384.103 304.516C378.825 302.328 374.113 298.246 372.128 292.784C370.451 288.172 370.651 282.268 372.699 277.817L373.231 277.819L374.262 279.61L375.171 279.429C378.146 286.163 382.179 291.504 389.347 294.173C394.176 295.971 398.921 295.404 403.534 293.254Q405.436 292.347 407.213 291.213Q408.99 290.08 410.615 288.737C410.743 289.532 410.846 290.323 410.849 291.131C410.871 296.129 405.468 302.371 401.895 305.567Z"/>
	<defs>
		<linearGradient id="gradient_1" gradientUnits="userSpaceOnUse" x1="482.2739" y1="462.12115" x2="451.3241" y2="444.75003">
			<stop offset="0" stop-color="#0283A3"/>
			<stop offset="1" stop-color="#15C8E0"/>
		</linearGradient>
	</defs>
	<path fill="url(#gradient_1)" d="M433.924 434.245C437.49 433.811 441.031 436.935 443.988 438.622C445.389 441.366 446.927 444.897 449.175 447.015C451.918 446.086 455.227 444.486 458.061 444.114C459.684 443.902 482.815 448.407 484.93 449.194C481.889 455.832 484.489 461.458 485.206 468.39C479.047 466.337 473.584 464.479 468.316 460.56C465.382 460.393 461.101 459.661 458.315 460.627C456.913 461.113 456.674 461.64 456.063 462.933C453.019 455.629 446.826 442.89 440.668 437.906C438.762 436.363 436.13 435.316 433.924 434.245Z"/>
	<path fill="#0C182B" d="M375.671 269.495C378.192 263.475 381.528 257.924 387.848 255.282C392.676 253.264 398.126 253.482 402.867 255.639C408.552 258.225 413.141 263.483 415.106 269.401C415.797 271.482 415.977 273.708 416.128 275.885C415.162 280.721 413.892 284.881 410.615 288.737Q408.99 290.08 407.213 291.213Q405.436 292.347 403.534 293.254C398.921 295.404 394.176 295.971 389.347 294.173C382.179 291.504 378.146 286.163 375.171 279.429C374.521 275.823 374.851 273.003 375.671 269.495Z"/>
	<path fill="#7EA1AD" d="M394.936 271.982C395.453 272.313 395.808 272.52 396.271 272.877C397.814 274.067 398.072 275.522 398.318 277.334C396.458 277.147 395.781 277.18 394.467 275.854C394.243 274.358 394.512 273.388 394.936 271.982Z"/>
</svg>
